<?xml version="1.0" standalone="no"?>
<!DOCTYPE svg PUBLIC "-//W3C//DTD SVG 20010904//EN"
 "http://www.w3.org/TR/2001/REC-SVG-20010904/DTD/svg10.dtd">
<svg version="1.0" xmlns="http://www.w3.org/2000/svg"
 width="1280.000000pt" height="775.000000pt" viewBox="0 0 1280.000000 775.000000"
 preserveAspectRatio="xMidYMid meet">

<g transform="translate(0.000000,775.000000) scale(0.100000,-0.100000)"
fill="#577399" stroke="none">
<path d="M1565 7637 c-15 -40 -290 -785 -612 -1657 -322 -872 -645 -1747 -718
-1945 -164 -446 -170 -463 -165 -468 5 -4 995 -382 1303 -497 77 -29 142 -48
147 -44 28 32 179 256 266 396 574 922 1122 2202 1293 3023 44 213 55 306 56
470 0 201 -3 216 -63 248 -88 47 -351 147 -827 312 -294 102 -538 189 -604
215 l-49 19 -27 -72z"/>
<path d="M6969 7050 c-153 -18 -354 -92 -689 -255 -223 -108 -251 -119 -545
-209 -170 -52 -339 -107 -375 -121 -196 -77 -308 -243 -325 -481 -12 -172 -35
-249 -226 -776 -212 -584 -238 -731 -146 -823 41 -40 110 -66 327 -122 148
-38 186 -44 245 -41 205 13 438 228 680 628 57 94 206 386 238 468 15 37 21
42 49 43 37 0 139 26 343 88 265 80 305 62 766 -341 118 -102 257 -221 309
-263 90 -73 354 -255 370 -255 4 0 56 -64 115 -143 481 -630 1545 -1767 1908
-2040 l49 -36 58 29 c147 74 459 310 594 449 l49 50 -11 93 c-15 119 -49 267
-113 493 -63 224 -471 1450 -538 1617 -114 284 -350 811 -398 886 -118 186
-307 283 -908 466 -390 119 -518 168 -935 356 -363 164 -533 221 -715 240 -49
5 -94 9 -100 9 -5 -1 -40 -5 -76 -9z"/>
<path d="M3320 6728 c-53 -490 -269 -1179 -617 -1968 -164 -373 -435 -905
-626 -1232 l-28 -46 113 -100 c130 -115 437 -362 450 -362 4 0 8 3 8 8 0 4 8
17 18 30 l18 23 90 -34 c264 -101 599 -306 766 -469 l78 -77 58 20 c130 45
249 63 422 63 183 1 241 -10 359 -66 130 -61 294 -258 347 -416 12 -34 24 -63
28 -62 3 0 27 10 53 21 225 96 428 53 614 -131 71 -70 94 -100 127 -170 49
-103 75 -221 70 -325 l-3 -75 35 -11 c87 -28 200 -117 246 -194 59 -102 68
-146 69 -345 1 -102 4 -191 9 -198 4 -6 95 -78 202 -159 182 -137 194 -147
173 -158 -20 -11 -19 -13 27 -24 108 -25 277 -42 427 -42 87 1 165 4 173 9 12
7 -6 24 -78 75 -200 142 -493 421 -763 727 l-110 125 120 -109 c319 -288 704
-564 990 -708 l80 -41 160 6 c333 12 516 72 699 229 l38 34 -63 39 c-295 180
-660 520 -1100 1025 -145 166 -357 456 -343 469 3 3 231 -222 507 -501 518
-523 604 -600 822 -744 250 -164 352 -202 575 -211 192 -8 332 35 442 136 86
79 159 222 173 338 l6 48 -148 115 c-251 195 -494 403 -648 552 -275 267 -577
655 -822 1058 -75 124 -156 271 -126 230 192 -263 288 -375 588 -679 473 -481
851 -825 1178 -1076 l129 -98 67 7 c194 18 352 128 439 306 58 117 74 184 79
331 l5 127 -59 31 c-120 64 -329 249 -653 578 -488 494 -1096 1178 -1374 1546
-72 95 -91 114 -170 164 -172 109 -326 232 -646 512 -195 172 -305 257 -367
285 l-42 18 -173 -50 c-95 -28 -191 -56 -213 -61 -40 -11 -41 -12 -132 -193
-157 -311 -307 -531 -478 -703 -157 -158 -301 -242 -454 -266 -87 -13 -122 -9
-306 37 -286 71 -386 114 -464 200 -56 61 -79 119 -88 215 -13 144 29 309 193
762 197 543 211 590 224 742 5 61 16 136 25 169 54 207 177 369 345 455 55 29
449 161 478 161 8 0 13 2 11 4 -3 3 -128 12 -279 21 -786 44 -1764 125 -1941
161 l-26 5 -13 -113z"/>
<path d="M10380 6769 c-25 -11 -193 -76 -375 -144 -415 -156 -395 -148 -395
-156 0 -3 30 -24 67 -45 85 -49 229 -190 275 -269 58 -101 313 -676 413 -930
70 -178 461 -1351 524 -1570 93 -324 141 -562 141 -700 l0 -68 -72 -69 c-40
-39 -109 -102 -153 -141 -44 -39 -82 -74 -83 -79 -6 -14 118 -128 190 -175
226 -146 507 -160 873 -43 153 49 245 86 565 227 162 72 316 138 343 148 57
22 58 30 21 171 -120 463 -628 1457 -1281 2507 -265 425 -532 819 -733 1078
-102 132 -240 279 -262 279 -7 0 -33 -10 -58 -21z"/>
<path d="M2582 2763 c-87 -174 -72 -398 40 -618 54 -104 174 -228 268 -275 80
-40 166 -50 234 -27 l47 16 -7 -58 c-24 -215 124 -597 276 -714 130 -100 333
-92 564 21 l94 47 7 -85 c13 -158 65 -270 175 -378 61 -60 163 -113 255 -133
80 -17 246 -15 316 4 l57 15 -15 -36 c-41 -98 12 -261 124 -379 150 -160 386
-173 758 -44 106 37 285 113 285 121 0 4 -53 48 -117 98 -65 50 -130 103 -144
119 -26 27 -27 30 -17 98 5 39 8 131 6 205 -3 123 -6 140 -32 198 -49 106
-147 173 -286 195 l-68 10 16 36 c8 21 17 79 20 136 8 171 -37 294 -149 406
-90 90 -176 133 -280 138 -136 6 -250 -46 -390 -177 l-77 -72 19 61 c53 170
-5 358 -161 519 -117 121 -220 155 -450 147 -159 -6 -243 -21 -398 -73 -57
-19 -107 -34 -111 -34 -3 0 -15 15 -25 34 -42 78 -208 220 -391 334 -111 69
-372 202 -397 202 -12 0 -27 -19 -46 -57z"/>
</g>

<!-- Adicionando o texto "YouHired" -->


</svg>
