<?xml version="1.0" standalone="no"?>
<!DOCTYPE svg PUBLIC "-//W3C//DTD SVG 20010904//EN"
 "http://www.w3.org/TR/2001/REC-SVG-20010904/DTD/svg10.dtd">
<svg version="1.0" xmlns="http://www.w3.org/2000/svg"
 width="1280.000000pt" height="775.000000pt" viewBox="0 0 1280.000000 775.000000"
 preserveAspectRatio="xMidYMid meet">

<g transform="translate(0.000000,775.000000) scale(0.100000,-0.100000)"
fill="#000000" stroke="none">
<path d="M1695 5469 c-57 -149 -626 -1698 -628 -1708 -2 -16 55 -40 383 -164
239 -90 218 -88 260 -25 268 410 530 994 609 1361 28 129 37 264 19 296 -15
29 -49 44 -371 158 -132 46 -245 87 -253 90 -8 3 -16 -1 -19 -8z"/>
<path d="M3935 5203 c-56 -12 -132 -41 -245 -93 -69 -32 -191 -79 -272 -105
-220 -69 -249 -97 -274 -257 -9 -54 -41 -162 -80 -271 -111 -310 -118 -369
-55 -402 36 -18 182 -55 218 -55 68 0 169 86 254 215 29 44 117 208 135 253 3
6 221 62 244 62 40 0 116 -51 257 -173 73 -63 162 -134 199 -158 49 -33 90
-74 160 -160 217 -270 706 -786 762 -803 29 -10 99 32 218 127 78 63 84 70 84
105 0 64 -46 229 -153 553 -141 426 -258 699 -329 766 -46 44 -154 92 -348
153 -91 29 -248 88 -350 132 -239 103 -342 130 -425 111z"/>
<path d="M2425 5067 c-39 -308 -238 -830 -478 -1260 l-55 -97 62 -53 c121
-106 168 -138 181 -127 28 23 248 -92 350 -183 l54 -48 52 16 c76 22 232 20
284 -4 49 -22 140 -121 156 -169 9 -28 15 -33 33 -27 43 14 135 17 169 6 49
-16 121 -83 146 -134 12 -24 24 -71 27 -106 6 -52 11 -64 29 -71 36 -14 87
-62 101 -97 8 -18 14 -56 15 -85 1 -108 7 -121 92 -187 42 -34 77 -65 77 -70
0 -13 109 -23 194 -19 l68 3 -48 35 c-58 41 -256 231 -287 274 -15 22 1 12 58
-35 108 -87 201 -153 293 -206 l77 -45 90 6 c50 3 113 12 140 20 49 15 145 71
145 84 0 4 -31 27 -68 52 -124 83 -425 392 -522 536 l-33 49 29 -25 c16 -14
112 -108 214 -210 255 -254 368 -336 498 -360 102 -18 196 5 249 62 26 28 62
105 63 133 0 14 -35 47 -107 105 -213 169 -355 319 -495 525 -94 138 -113 176
-51 105 143 -166 448 -459 617 -595 75 -61 100 -75 127 -75 115 1 219 127 219
265 0 50 -2 54 -41 79 -130 87 -522 496 -786 822 -58 72 -105 118 -160 157
-43 30 -136 105 -208 166 -177 152 -170 149 -269 121 -45 -13 -86 -27 -93 -32
-7 -6 -33 -49 -59 -96 -133 -248 -274 -382 -402 -382 -53 0 -192 34 -241 60
-68 34 -85 63 -89 143 -3 68 1 85 78 307 47 138 85 266 91 310 13 93 39 154
87 203 45 46 72 62 177 97 77 26 79 28 45 33 -19 3 -150 13 -290 22 -254 16
-536 41 -577 50 -19 4 -22 0 -28 -48z"/>
<path d="M5230 5029 c-85 -33 -157 -62 -160 -65 -2 -3 4 -10 15 -16 47 -27
110 -98 141 -159 149 -297 405 -1050 429 -1264 l6 -60 -66 -64 -66 -64 26 -27
c104 -108 288 -119 510 -29 39 15 122 50 185 78 97 43 115 54 118 75 8 61
-111 336 -271 628 -273 499 -629 1029 -690 1027 -12 0 -92 -27 -177 -60z"/>
<path d="M11360 4130 c0 -71 -1 -130 -2 -130 -2 0 -25 11 -52 25 -58 30 -106
31 -161 6 -78 -35 -123 -111 -132 -224 -11 -129 47 -257 134 -293 63 -27 145
-14 190 28 l22 21 7 -27 c6 -24 11 -26 55 -26 l49 0 0 375 0 375 -55 0 -55 0
0 -130z m-29 -209 c29 -29 29 -30 29 -148 0 -112 -1 -121 -23 -141 -54 -51
-139 -46 -178 10 -27 38 -38 164 -20 221 29 86 132 117 192 58z"/>
<path d="M9907 4222 c-38 -42 -8 -102 50 -102 55 0 85 67 45 103 -25 22 -75
21 -95 -1z"/>
<path d="M7400 4216 c0 -5 52 -104 115 -222 l115 -213 0 -135 0 -136 65 0 65
0 0 136 0 136 115 215 c63 118 115 220 115 225 0 7 -17 8 -46 4 -26 -3 -55 -6
-65 -6 -14 0 -39 -41 -102 -166 l-83 -166 -81 165 -81 165 -66 4 c-36 1 -66
-1 -66 -6z"/>
<path d="M9180 3865 l0 -355 60 0 59 0 3 158 3 157 160 0 160 0 3 -157 3 -158
59 0 60 0 0 355 0 355 -60 0 -60 0 0 -145 0 -145 -165 0 -165 0 0 145 0 145
-60 0 -60 0 0 -355z"/>
<path d="M8176 4035 c-137 -49 -196 -202 -145 -376 17 -57 89 -130 145 -147
65 -19 133 -15 190 12 91 42 134 125 134 256 0 128 -57 219 -162 256 -51 18
-111 17 -162 -1z m164 -115 c37 -39 54 -106 46 -176 -12 -103 -51 -149 -126
-149 -82 0 -130 64 -130 172 0 125 42 183 132 183 42 0 54 -4 78 -30z"/>
<path d="M10325 4034 c-16 -8 -38 -23 -47 -31 -17 -15 -18 -14 -18 10 0 26 -2
27 -60 27 l-60 0 0 -265 0 -265 60 0 60 0 0 183 c0 179 1 184 23 205 29 27 82
44 114 36 22 -6 23 -4 23 55 l0 61 -32 0 c-18 0 -46 -7 -63 -16z"/>
<path d="M10637 4036 c-94 -34 -155 -123 -164 -239 -14 -172 92 -297 252 -297
67 0 144 30 182 72 l23 24 -30 29 c-22 21 -34 27 -44 20 -61 -45 -73 -50 -122
-50 -62 0 -100 23 -127 78 -33 65 -29 67 164 67 l172 0 -7 63 c-11 96 -27 138
-71 183 -58 61 -144 80 -228 50z m135 -98 c23 -11 48 -60 48 -93 l0 -25 -116
0 -116 0 7 28 c23 93 98 131 177 90z"/>
<path d="M8612 3821 c3 -241 4 -245 72 -295 41 -31 162 -30 205 2 37 27 41 27
41 2 0 -18 7 -20 55 -20 l55 0 0 265 0 265 -55 0 -55 0 0 -194 0 -194 -29 -25
c-35 -29 -89 -41 -125 -27 -47 18 -56 59 -56 260 l0 180 -56 0 -55 0 3 -219z"/>
<path d="M9890 3775 l0 -265 60 0 60 0 0 265 0 265 -60 0 -60 0 0 -265z"/>
<path d="M2121 3416 c-6 -7 -17 -38 -23 -69 -21 -101 29 -225 118 -293 30 -24
48 -29 91 -29 l53 0 0 -48 c0 -87 53 -210 115 -267 24 -22 35 -25 103 -25 60
1 86 6 120 24 24 12 45 21 47 19 1 -2 8 -27 14 -56 14 -69 54 -127 110 -160
40 -24 57 -27 131 -27 l85 0 -3 -32 c-5 -42 31 -117 72 -148 52 -40 113 -50
198 -32 79 16 173 49 202 70 16 12 13 17 -38 56 l-56 43 0 85 c0 125 -32 179
-119 203 -36 9 -36 10 -33 55 8 93 -5 132 -61 190 -81 83 -154 85 -254 7 l-48
-39 0 67 c0 57 -5 74 -30 115 -17 27 -50 63 -74 80 -40 28 -48 30 -134 30 -60
0 -116 -7 -159 -19 l-67 -19 -69 64 c-62 57 -202 146 -258 163 -13 4 -26 1
-33 -8z"/>
</g>
</svg>
